<svg width="24" height="24" viewBox="0 0 24 24" fill="none" xmlns="http://www.w3.org/2000/svg">
  <g opacity="0.8">
    <path d="M6.03448 13.2971H9.01061L7.54642 8.6817L6.03448 13.2971ZM6.18568 6H8.95491L13.1088 17.7294H10.4509L9.69496 15.3183H5.37401L4.56233 17.7294H2L6.18568 6Z" fill="black"/>
    <path d="M19.1975 13.5119C19.0543 13.6021 18.9084 13.6764 18.7599 13.7348C18.6166 13.7878 18.4177 13.8382 18.163 13.886L17.6538 13.9814C17.1763 14.0663 16.8341 14.1698 16.6272 14.2918C16.2771 14.4987 16.102 14.8196 16.102 15.2547C16.102 15.6419 16.2081 15.9231 16.4203 16.0982C16.6378 16.2679 16.9004 16.3528 17.2081 16.3528C17.6962 16.3528 18.1445 16.2096 18.553 15.9231C18.9668 15.6366 19.1816 15.1141 19.1975 14.3554V13.5119ZM17.8209 12.4536C18.24 12.4005 18.5397 12.3342 18.7201 12.2547C19.0437 12.1167 19.2055 11.9019 19.2055 11.6101C19.2055 11.2547 19.0808 11.0106 18.8315 10.878C18.5874 10.7401 18.2267 10.6711 17.7492 10.6711C17.2134 10.6711 16.8341 10.8037 16.6113 11.069C16.4522 11.2653 16.3461 11.5305 16.293 11.8647H14.1047C14.1524 11.1061 14.3646 10.4828 14.7413 9.9947C15.3408 9.23078 16.3699 8.84882 17.8288 8.84882C18.7784 8.84882 19.6219 9.03714 20.3593 9.4138C21.0967 9.79046 21.4654 10.5013 21.4654 11.5464V15.5252C21.4654 15.8011 21.4707 16.1353 21.4813 16.5279C21.4973 16.8249 21.5424 17.0265 21.6166 17.1326C21.6909 17.2387 21.8023 17.3263 21.9508 17.3952V17.7295H19.484C19.415 17.5544 19.3673 17.3899 19.3408 17.2361C19.3142 17.0822 19.293 16.9072 19.2771 16.7109C18.9641 17.0504 18.6034 17.3395 18.1949 17.5783C17.7068 17.8594 17.1551 18 16.5397 18C15.7546 18 15.1047 17.7772 14.5901 17.3316C14.0808 16.8806 13.8262 16.244 13.8262 15.4218C13.8262 14.3554 14.2373 13.5836 15.0596 13.1061C15.5105 12.8462 16.1737 12.6605 17.049 12.5491L17.8209 12.4536Z" fill="black" fill-opacity="0.6"/>
  </g>
</svg>
